<svg width="60" height="60" viewBox="0 0 60 60" fill="none" xmlns="http://www.w3.org/2000/svg">
<rect width="60" height="60" rx="16" fill="#FF4363"/>
<path d="M45.3115 15.646V40.5271C45.3115 41.5836 44.4541 42.4411 43.3976 42.4411H16.6025C15.546 42.4411 14.6886 41.5836 14.6886 40.5271V15.646C12.5737 15.646 10.8607 17.359 10.8607 19.4739V40.5271C10.8607 43.6985 13.4311 46.2689 16.6025 46.2689H43.3976C46.569 46.2689 49.1394 43.6985 49.1394 40.5271V19.4739C49.1394 17.359 47.4264 15.646 45.3115 15.646Z" fill="white"/>
<path opacity="0.57" d="M35.4624 11.8179C33.2881 11.8179 31.2996 13.0466 30.3273 14.9912L30 15.6457L29.6727 14.9912C28.7004 13.0466 26.7119 11.8179 24.5376 11.8179H18.5164C16.4015 11.8179 14.6885 13.5308 14.6885 15.6457V40.5269C14.6885 41.5834 15.546 42.4408 16.6025 42.4408H43.3975C44.454 42.4408 45.3115 41.5834 45.3115 40.5269V15.6457C45.3115 13.5308 43.5985 11.8179 41.4836 11.8179H35.4624Z" fill="white"/>
<path d="M30 48.1822C33.1714 48.1822 35.7418 45.6118 35.7418 42.4404H24.2582C24.2582 45.6118 26.8286 48.1822 30 48.1822Z" fill="white"/>
</svg>
