<svg width="64" height="64" viewBox="0 0 64 64" fill="none" xmlns="http://www.w3.org/2000/svg">
<rect width="64" height="64" rx="16" fill="#FFBA07"/>
<path opacity="0.35" d="M40.6977 15.3765L15.7408 40.2989C15.2395 40.8002 14.9046 41.4436 14.7849 42.1417L13.764 48.0639C13.5428 49.3445 14.657 50.4587 15.9397 50.2354L21.7928 49.2166C22.4869 49.0949 23.1282 48.764 23.6275 48.2668L48.623 23.3017L40.6977 15.3765Z" fill="white"/>
<path d="M37.1075 18.9585L15.7408 40.2989C15.2395 40.8002 14.9046 41.4435 14.7849 42.1417L14.3871 44.4472L19.5481 49.6083L21.7908 49.2186C22.4849 49.0968 23.1262 48.766 23.6254 48.2688L45.0368 26.8838L37.1075 18.9585Z" fill="white"/>
<path d="M48.3268 23.5978L48.6251 23.3015C50.8129 21.1137 50.8129 17.564 48.6251 15.3762C46.4373 13.1884 42.8876 13.1884 40.6998 15.3762L40.4015 15.6725L48.3268 23.5978Z" fill="white"/>
<path opacity="0.6" d="M49.0756 40.4671L23.5321 14.9237C21.9471 13.3386 19.3777 13.3386 17.7927 14.9237L14.9229 17.7934C13.3379 19.3784 13.3379 21.9478 14.9229 23.5329L40.4664 49.0764C42.0515 50.6614 44.6208 50.6614 46.2059 49.0764L49.0756 46.2066C50.6607 44.6216 50.6607 42.0522 49.0756 40.4671Z" fill="white"/>
</svg>
