<svg width="588" height="412" viewBox="0 0 588 412" fill="none" xmlns="http://www.w3.org/2000/svg">
<mask id="mask0_2481_23469" style="mask-type:alpha" maskUnits="userSpaceOnUse" x="0" y="0" width="588" height="412">
<rect width="588" height="412" fill="#FF4363"/>
</mask>
<g mask="url(#mask0_2481_23469)">
<rect width="588" height="412" fill="#FF4363"/>
<path d="M184.875 206.692C168.155 219.192 147.29 224.857 126.533 222.53C105.775 220.204 86.6874 210.062 73.1596 194.172C59.6319 178.282 52.6822 157.839 53.7263 137.011C54.7705 116.183 63.73 96.5354 78.7794 82.0734" stroke="#1F2F54" stroke-width="2" stroke-linecap="round" stroke-dasharray="11 11"/>
<path d="M125.137 84.5548L150.873 50.416C153.59 46.8378 150.702 41.7736 146.215 42.2445L103.483 46.7289C99.828 47.1124 97.7686 51.0909 99.5852 54.2573L104.528 62.4367C105.208 63.6429 104.806 65.1686 103.617 65.8918L90.0446 74.0418C88.1599 75.19 87.208 77.2728 87.423 79.3152C87.5339 80.3687 87.9557 81.4117 88.7176 82.3108C90.4922 84.4086 93.6249 84.7721 95.9808 83.3372L108.86 75.6081C110.118 74.8425 111.763 75.2669 112.482 76.5433L116.644 84.0238C118.454 87.1791 122.933 87.4599 125.137 84.5548Z" fill="#1F2F54"/>
<path d="M123.852 77.4213L149.588 43.2826C152.305 39.7045 149.417 34.6403 144.93 35.1112L102.198 39.5952C98.5429 39.9787 96.4836 43.9572 98.3002 47.1236L103.243 55.303C103.923 56.5092 103.521 58.035 102.332 58.7581L88.7597 66.908C86.875 68.0561 85.9231 70.1389 86.1381 72.1814C86.249 73.2348 86.6709 74.2778 87.4328 75.1769C89.2074 77.2748 92.3401 77.6383 94.696 76.2034L107.575 68.4744C108.833 67.7088 110.478 68.1332 111.198 69.4097L115.359 76.8902C117.169 80.0455 121.649 80.3263 123.852 77.4213Z" fill="white"/>
<rect opacity="0.34" width="737.371" height="524.385" rx="90" transform="matrix(0.855357 0.518039 -0.453811 0.891098 85.2169 233.866)" fill="white"/>
<ellipse opacity="0.34" cx="677.033" cy="-160.044" rx="429.501" ry="424.297" fill="white"/>
<path d="M513.532 136.534C528.812 150.753 538.086 170.254 539.464 191.063C540.843 211.872 534.222 232.423 520.951 248.528C507.681 264.632 488.758 275.079 468.041 277.737C447.323 280.396 426.37 275.066 409.452 262.835" stroke="#1F2F54" stroke-width="2" stroke-linecap="round" stroke-dasharray="11 11"/>
<path fill-rule="evenodd" clip-rule="evenodd" d="M305.665 90.3584C301.689 90.3584 298.465 93.5818 298.465 97.5581V100.09H138.641C133.118 100.09 128.641 104.567 128.641 110.09V304.445C128.641 309.968 133.118 314.445 138.641 314.445H298.465V316.977C298.465 320.953 301.689 324.176 305.665 324.176C309.641 324.176 312.865 320.953 312.865 316.977V314.445H470.75C476.273 314.445 480.75 309.968 480.75 304.445V110.09C480.75 104.567 476.273 100.09 470.75 100.09H312.865V97.5581C312.865 93.5818 309.641 90.3584 305.665 90.3584Z" fill="#1F2F54"/>
<path d="M315.176 90.3564H477.982C483.504 90.3564 487.982 94.8336 487.982 100.356V294.712C487.982 300.234 483.504 304.712 477.982 304.712H315.176V90.3564Z" fill="white"/>
<rect x="336.714" y="108.689" width="58.2946" height="58.7144" rx="10" fill="#FFBA07"/>
<rect x="405.086" y="108.689" width="58.2946" height="58.7144" rx="10" fill="#FF4363"/>
<path d="M378.668 134.209C381.497 134.209 383.791 131.919 383.791 129.094C383.791 126.27 381.497 123.98 378.668 123.98C375.839 123.98 373.545 126.27 373.545 129.094C373.545 131.919 375.839 134.209 378.668 134.209Z" fill="white"/>
<path d="M345.37 149.554C345.37 150.956 346.518 152.112 347.932 152.112H383.791C385.205 152.112 386.352 150.976 386.352 149.554C386.352 146.066 382.029 141.882 379.949 141.882C377.869 141.882 375.984 144.439 370.984 144.439C364.729 144.439 360.739 131.652 355.616 131.652C350.493 131.652 345.37 142.808 345.37 149.554Z" fill="white"/>
<rect x="337.773" y="207.803" width="124.249" height="47.1843" rx="8" fill="#FF4363"/>
<line x1="391.813" y1="181.805" x2="339.039" y2="181.805" stroke="#1F2F54" stroke-width="3" stroke-linecap="round"/>
<line x1="460.702" y1="181.805" x2="407.927" y2="181.805" stroke="#1F2F54" stroke-width="3" stroke-linecap="round"/>
<line x1="391.813" y1="194.806" x2="339.039" y2="194.806" stroke="#1F2F54" stroke-width="3" stroke-linecap="round"/>
<line x1="460.702" y1="194.806" x2="407.927" y2="194.806" stroke="#1F2F54" stroke-width="3" stroke-linecap="round"/>
<line x1="462.688" y1="266.938" x2="339.039" y2="266.938" stroke="#1F2F54" stroke-width="3" stroke-linecap="round"/>
<line x1="464.12" y1="281.729" x2="339.038" y2="281.729" stroke="#1F2F54" stroke-width="3" stroke-linecap="round"/>
<path d="M308.678 90.3564H145.872C140.35 90.3564 135.872 94.8336 135.872 100.356V294.712C135.872 300.234 140.35 304.712 145.872 304.712H308.678V90.3564Z" fill="white"/>
<rect x="158.235" y="150.534" width="128.081" height="128.96" rx="10" fill="#FF4363"/>
<rect x="174.066" y="227.707" width="7.85952" height="37.3786" rx="3.92976" fill="white" stroke="#1F2F54" stroke-width="3"/>
<rect x="191.941" y="204.286" width="7.85952" height="60.7985" rx="3.92976" fill="white" stroke="#1F2F54" stroke-width="3"/>
<rect x="209.817" y="219.597" width="7.85952" height="45.4878" rx="3.92976" fill="white" stroke="#1F2F54" stroke-width="3"/>
<rect x="227.693" y="177.748" width="7.85952" height="87.3375" rx="3.92976" fill="white" stroke="#1F2F54" stroke-width="3"/>
<rect x="245.569" y="192.463" width="7.85952" height="72.622" rx="3.92976" fill="white" stroke="#1F2F54" stroke-width="3"/>
<rect x="263.444" y="164.005" width="7.85952" height="101.08" rx="3.92976" fill="white" stroke="#1F2F54" stroke-width="3"/>
<line x1="204.801" y1="117.548" x2="159.734" y2="117.548" stroke="#1F2F54" stroke-width="3" stroke-linecap="round"/>
<line x1="284.816" y1="132.549" x2="159.735" y2="132.549" stroke="#1F2F54" stroke-width="3" stroke-linecap="round"/>
<rect x="308.987" y="82.626" width="12.3789" height="229.818" rx="6.18944" fill="white" stroke="#1F2F54" stroke-width="4"/>
<rect x="65.2603" y="215.142" width="165.566" height="129.727" rx="7" fill="#1F2F54"/>
<rect x="74.4168" y="206" width="165.566" height="129.727" rx="7" fill="white"/>
<line x1="150.433" y1="239.956" x2="86.002" y2="239.956" stroke="#1F2F54" stroke-width="3" stroke-linecap="round"/>
<line x1="150.433" y1="262.021" x2="99.1308" y2="262.021" stroke="#1F2F54" stroke-width="3" stroke-linecap="round"/>
<line x1="180.21" y1="274.208" x2="125.187" y2="274.208" stroke="#1F2F54" stroke-width="3" stroke-linecap="round"/>
<line x1="141.026" y1="285.24" x2="86.0018" y2="285.24" stroke="#1F2F54" stroke-width="3" stroke-linecap="round"/>
<line x1="191.667" y1="285.24" x2="149.55" y2="285.24" stroke="#FFBA07" stroke-width="3" stroke-linecap="round"/>
<line x1="175.386" y1="296.273" x2="108.114" y2="296.273" stroke="#1F2F54" stroke-width="3" stroke-linecap="round"/>
<line x1="146.551" y1="307.306" x2="94.881" y2="307.306" stroke="#1F2F54" stroke-width="3" stroke-linecap="round"/>
<line x1="193.729" y1="307.306" x2="155.517" y2="307.306" stroke="#FFBA07" stroke-width="3" stroke-linecap="round"/>
<line x1="219.965" y1="296.273" x2="184.636" y2="296.273" stroke="#FF4363" stroke-width="3" stroke-linecap="round"/>
<line x1="206.377" y1="274.208" x2="188.93" y2="274.208" stroke="#1F2F54" stroke-width="3" stroke-linecap="round"/>
<line x1="200.381" y1="262.021" x2="158.958" y2="262.021" stroke="#FF4363" stroke-width="3" stroke-linecap="round"/>
<line x1="178.155" y1="250.988" x2="110.328" y2="250.988" stroke="#FFBA07" stroke-width="3" stroke-linecap="round"/>
<line x1="219.965" y1="250.988" x2="186.476" y2="250.988" stroke="#1F2F54" stroke-width="3" stroke-linecap="round"/>
<line x1="185.93" y1="239.956" x2="158.958" y2="239.956" stroke="#1F2F54" stroke-width="3" stroke-linecap="round"/>
<line x1="212.234" y1="239.956" x2="194.455" y2="239.956" stroke="#FF4363" stroke-width="3" stroke-linecap="round"/>
<ellipse cx="88.2874" cy="218.353" rx="3.78566" ry="3.78074" fill="#DCE0EB"/>
<ellipse cx="98.4749" cy="218.353" rx="3.78566" ry="3.78074" fill="#DCE0EB"/>
<ellipse cx="108.662" cy="218.353" rx="3.78566" ry="3.78074" fill="#DCE0EB"/>
<path d="M518.281 342.659C520.942 346.186 520.238 351.198 516.707 353.855L513.856 356C510.325 358.656 505.306 357.951 502.644 354.424L434.314 263.887C433.315 262.564 433.58 260.685 434.904 259.688L445.746 251.531C447.07 250.535 448.952 250.799 449.95 252.122L518.281 342.659Z" fill="#FFBA07"/>
<path d="M518.463 342.512C521.125 346.039 520.421 351.051 516.89 353.707L513.584 356.195C510.053 358.851 505.033 358.146 502.372 354.619L490.714 339.173L506.806 327.066L518.463 342.512Z" fill="white"/>
<line x1="1.5" y1="-1.5" x2="35.2247" y2="-1.5" transform="matrix(0.602407 0.798189 -0.799082 0.601222 483.896 315.872)" stroke="#1F2F54" stroke-width="3" stroke-linecap="round"/>
<path d="M444.59 253.412L436.749 259.311C435.895 259.954 434.66 259.523 434.392 258.488L431.592 247.661C431.275 246.436 432.527 245.394 433.676 245.927L444.318 250.855C445.347 251.331 445.496 252.731 444.59 253.412Z" fill="#1F2F54" stroke="#1F2F54" stroke-width="3"/>
<path d="M437.513 247.704L446.59 251.907L434.954 260.662L432.65 251.75C431.91 248.891 434.831 246.461 437.513 247.704Z" fill="white" stroke="#1F2F54" stroke-width="3"/>
</g>
</svg>
