<svg width="60" height="60" viewBox="0 0 60 60" fill="none" xmlns="http://www.w3.org/2000/svg">
<rect width="60" height="60" rx="16" fill="#FFBA07"/>
<path opacity="0.55" d="M49.6271 21.3574L32.5629 12.1689C30.9447 11.2979 28.9978 11.2979 27.3796 12.1689L10.3155 21.3574C9.20192 21.9555 8.60922 22.9972 8.47632 24.0874C8.60922 25.1776 9.20371 26.2193 10.3155 26.8174L27.3796 36.0059C28.9978 36.877 30.9447 36.877 32.5629 36.0059L49.6271 26.8174C50.4281 26.3863 51.5237 25.8835 51.5237 25.8835C51.5237 25.8835 51.5237 24.0874 51.4662 24.0874C51.3333 22.9972 50.7406 21.9555 49.6271 21.3574Z" fill="white"/>
<path d="M44.3396 27.0491C44.3396 26.3432 43.9193 25.7326 43.3087 25.5655C41.4318 25.0501 36.9848 24.0874 29.9713 24.0874C22.9578 24.0874 18.5108 25.0501 16.634 25.5655C16.0233 25.7344 15.603 26.3432 15.603 27.0491L15.6174 39.3573C15.6192 40.6684 16.5711 41.8197 17.9073 42.019C17.963 42.0262 23.5505 42.8973 28.2453 46.8108C28.7464 47.2275 29.3589 47.4359 29.9713 47.4359C30.5838 47.4359 31.1962 47.2275 31.6955 46.8108C36.3903 42.8973 41.9778 42.0262 42.0245 42.0208C43.3697 41.8286 44.3396 40.6756 44.3396 39.3573V27.0491Z" fill="white"/>
<path d="M49.7277 42.0477C48.7363 42.0477 47.9316 41.2431 47.9316 40.2517V25.8834C47.9316 24.892 48.7363 24.0874 49.7277 24.0874C50.7191 24.0874 51.5237 24.892 51.5237 25.8834V40.2517C51.5237 41.2431 50.7191 42.0477 49.7277 42.0477Z" fill="white"/>
</svg>
