<svg width="64" height="64" viewBox="0 0 64 64" fill="none" xmlns="http://www.w3.org/2000/svg">
<rect width="64" height="64" rx="16" fill="#FF4363"/>
<path d="M21.284 24.0771C18.6582 24.0771 16.53 26.2053 16.53 28.8311V35.1697C16.53 37.7955 18.6582 39.9237 21.284 39.9237H27.6226V24.0771H21.284Z" fill="white"/>
<path opacity="0.54" d="M44.683 16.3949C43.4945 15.902 42.1365 16.1746 41.2285 17.0826C39.2825 19.027 33.0453 24.0773 27.6226 24.0773C25.8732 24.0773 24.4533 25.4971 24.4533 27.2466V36.7545C24.4533 38.504 25.8732 39.9238 27.6226 39.9238C33.0105 39.9238 39.273 44.9757 41.2285 46.9185C41.8354 47.5254 42.6436 47.8471 43.4692 47.8471C43.878 47.8471 44.29 47.7679 44.683 47.6063C45.8668 47.115 46.6385 45.9598 46.6385 44.6778V19.3233C46.6385 18.0413 45.8668 16.8861 44.683 16.3949Z" fill="white"/>
<path d="M27.6226 33.5854H21.284C21.284 33.5854 22.8687 45.1915 22.8687 45.4704C22.8687 46.7825 23.9335 47.8474 25.2456 47.8474C26.5577 47.8474 27.6226 46.7825 27.6226 45.4704C27.6226 45.1915 27.6226 33.5854 27.6226 33.5854Z" fill="white"/>
<path d="M46.6385 27.5381V36.4645C48.4815 35.81 49.8078 34.0685 49.8078 32.0021C49.8078 29.9357 48.4815 28.1925 46.6385 27.5381Z" fill="white"/>
</svg>
