<svg width="588" height="412" viewBox="0 0 588 412" fill="none" xmlns="http://www.w3.org/2000/svg">
<g clip-path="url(#clip0_2481_23467)">
<mask id="mask0_2481_23467" style="mask-type:alpha" maskUnits="userSpaceOnUse" x="-1" y="0" width="589" height="412">
<rect x="-0.000488281" width="588" height="412" fill="#FF4363"/>
</mask>
<g mask="url(#mask0_2481_23467)">
<rect x="-0.000488281" width="588" height="412" fill="#45BCFF"/>
<path opacity="0.3" d="M-554.646 -261.827C-554.515 -308.556 -518.135 -344.624 -471.133 -344.624H86.0014C138.454 -344.624 183.138 -300.075 182.992 -247.927L182.028 95.3302C181.897 142.06 145.517 178.128 98.5148 178.128H-458.619C-511.072 178.128 -555.756 133.579 -555.61 81.4304L-554.646 -261.827Z" fill="white"/>
<path d="M185.065 273.723C168.346 286.224 147.481 291.888 126.723 289.562C105.966 287.235 86.878 277.093 73.3502 261.203C59.8225 245.313 52.8728 224.871 53.9169 204.042C54.9611 183.214 63.9206 163.567 78.97 149.105" stroke="#1F2F54" stroke-width="2" stroke-linecap="round" stroke-dasharray="11 11"/>
<ellipse opacity="0.3" cx="723.5" cy="585.08" rx="429.501" ry="424.297" fill="white"/>
<path d="M464.24 91.3611L464.799 312.238C464.811 317.151 460.832 321.14 455.919 321.14L289.201 321.151H289.025L122.979 321.14C118.075 321.14 114.1 317.165 114.1 312.26V91.3611C114.1 86.284 118.313 82.0771 123.398 82.0771H454.942C460.172 82.0771 464.24 86.429 464.24 91.3611Z" fill="#1F2F54"/>
<path d="M471.727 82.0149L472.286 302.892C472.298 307.805 468.319 311.794 463.406 311.794L296.688 311.804H296.512L130.466 311.794C125.562 311.794 121.587 307.818 121.587 302.914V82.0149C121.587 76.9378 125.8 72.731 130.885 72.731H462.429C467.659 72.731 471.727 77.0828 471.727 82.0149Z" fill="#E4F5FF"/>
<g clip-path="url(#clip1_2481_23467)">
<rect x="133.93" y="84.2959" width="326.42" height="213.862" rx="9.88" fill="white"/>
<line x1="246.855" y1="266.577" x2="176.319" y2="266.577" stroke="#1F2F54" stroke-width="3" stroke-linecap="round"/>
<line x1="337.773" y1="266.577" x2="267.237" y2="266.577" stroke="#1F2F54" stroke-width="3" stroke-linecap="round"/>
<line x1="428.689" y1="266.577" x2="358.153" y2="266.577" stroke="#1F2F54" stroke-width="3" stroke-linecap="round"/>
<line x1="407.718" y1="275.853" x2="358.153" y2="275.853" stroke="#1F2F54" stroke-width="3" stroke-linecap="round"/>
<line x1="221.083" y1="275.853" x2="176.319" y2="275.853" stroke="#1F2F54" stroke-width="3" stroke-linecap="round"/>
<line x1="312.001" y1="275.853" x2="267.236" y2="275.853" stroke="#1F2F54" stroke-width="3" stroke-linecap="round"/>
<rect x="174.819" y="216.586" width="73.536" height="41.2164" rx="7" fill="#2D68FF"/>
<rect x="265.737" y="216.586" width="73.536" height="41.2164" rx="7" fill="#45BCFF"/>
<rect x="356.653" y="216.586" width="73.536" height="41.2164" rx="7" fill="#2D68FF"/>
<line x1="273.443" y1="146.266" x2="176.319" y2="146.266" stroke="#1F2F54" stroke-width="3" stroke-linecap="round"/>
<line x1="253.575" y1="154.714" x2="176.319" y2="154.714" stroke="#1F2F54" stroke-width="3" stroke-linecap="round"/>
<line x1="273.443" y1="163.162" x2="176.319" y2="163.162" stroke="#1F2F54" stroke-width="3" stroke-linecap="round"/>
<line x1="218.41" y1="131.207" x2="176.319" y2="131.207" stroke="#1F2F54" stroke-width="3" stroke-linecap="round"/>
<mask id="mask1_2481_23467" style="mask-type:alpha" maskUnits="userSpaceOnUse" x="309" y="117" width="126" height="84">
<rect x="309.155" y="117.22" width="125.396" height="83.012" rx="9" fill="#3D60DE"/>
</mask>
<g mask="url(#mask1_2481_23467)">
<rect x="309.155" y="117.22" width="125.396" height="83.012" rx="9" fill="#45BCFF"/>
<ellipse cx="436.845" cy="107.622" rx="64.9921" ry="59.9556" fill="#3D60DE"/>
</g>
<rect x="174.818" y="174.74" width="38.77" height="14.9756" rx="7.48782" fill="#45BCFF"/>
<ellipse cx="147.678" cy="99.6454" rx="4.25251" ry="4.24698" fill="#FF4363"/>
<ellipse cx="159.122" cy="99.6454" rx="4.25251" ry="4.24698" fill="#FFBA07"/>
<ellipse cx="170.566" cy="99.6454" rx="4.25251" ry="4.24698" fill="#05C168"/>
<path d="M259.273 84.2959H262.555C264.029 84.2959 265.224 85.4909 265.224 86.965V86.965C265.224 91.4563 268.865 95.0971 273.356 95.0971H320.922C325.414 95.0971 329.055 91.4563 329.055 86.965V86.965C329.055 85.4909 330.25 84.2959 331.724 84.2959H335.005H297.139H278.206H259.273Z" fill="#E4F5FF"/>
</g>
<path d="M505.016 334.583C505.938 332.747 505.938 322.874 505.938 318.067C505.938 317.159 505.202 316.422 504.293 316.422H78.6977C77.7892 316.422 77.0527 317.159 77.0527 318.067C77.0527 322.874 77.0527 332.747 77.9753 334.583C78.7869 336.198 80.0819 337.511 81.6746 338.334C83.4853 339.269 85.8557 339.269 90.5965 339.269H492.395C497.135 339.269 499.506 339.269 501.316 338.334C502.909 337.511 504.204 336.198 505.016 334.583Z" fill="#1F2F54"/>
<path d="M510.024 326.583C510.946 324.747 510.946 314.873 510.946 310.067C510.946 309.158 510.21 308.422 509.302 308.422H83.7057C82.7973 308.422 82.0608 309.158 82.0608 310.067C82.0608 314.873 82.0608 324.747 82.9834 326.583C83.795 328.198 85.0899 329.511 86.6827 330.333C88.4934 331.269 90.8638 331.269 95.6046 331.269H497.403C502.143 331.269 504.514 331.269 506.325 330.333C507.917 329.511 509.212 328.198 510.024 326.583Z" fill="white"/>
<path d="M254.454 308.353H338.55C338.55 313.943 334.018 318.475 328.428 318.475H264.576C258.986 318.475 254.454 313.943 254.454 308.353Z" fill="#D2E9F5"/>
<path d="M517.53 187.644L491.794 153.505C489.078 149.927 491.965 144.863 496.453 145.334L539.184 149.818C542.839 150.202 544.899 154.18 543.082 157.347L538.139 165.526C537.459 166.732 537.861 168.258 539.05 168.981L552.623 177.131C554.507 178.279 555.459 180.362 555.244 182.405C555.133 183.458 554.711 184.501 553.95 185.4C552.175 187.498 549.042 187.861 546.686 186.427L533.807 178.697C532.55 177.932 530.904 178.356 530.185 179.633L526.023 187.113C524.213 190.268 519.734 190.549 517.53 187.644Z" fill="#1F2F54"/>
<path d="M518.815 180.511L493.079 146.372C490.363 142.794 493.25 137.73 497.738 138.201L540.47 142.685C544.124 143.068 546.184 147.047 544.367 150.213L539.424 158.392C538.744 159.599 539.146 161.124 540.335 161.847L553.907 169.997C555.792 171.145 556.744 173.228 556.529 175.271C556.418 176.324 555.996 177.367 555.234 178.266C553.46 180.364 550.327 180.728 547.971 179.293L535.092 171.564C533.834 170.798 532.189 171.223 531.47 172.499L527.308 179.98C525.498 183.135 521.019 183.416 518.815 180.511Z" fill="white"/>
<path d="M466.665 250.098C471.13 250.098 475.173 252.574 477.405 256.229C478.491 257.998 479.216 260.179 479.035 262.478C478.914 264.246 479.457 266.015 480.422 267.665C483.5 272.676 490.318 274.563 495.628 271.733C501.601 268.314 509.143 270.377 512.583 276.213L516.625 283.17C520.125 289.006 518.194 296.492 512.16 299.853C507.031 302.859 505.221 309.521 508.299 314.59C509.264 316.182 510.35 317.538 512.04 318.363C514.151 319.483 515.78 321.252 516.927 323.02C519.159 326.675 518.978 331.155 516.806 335.105L512.583 342.179C510.35 345.952 506.187 348.31 501.903 348.31C499.791 348.31 497.438 347.721 495.507 346.542C493.938 345.539 492.128 345.186 490.197 345.186C484.224 345.186 479.216 350.079 479.035 355.915C479.035 362.694 473.483 368 466.545 368H458.339C451.339 368 445.788 362.694 445.788 355.915C445.667 350.079 440.659 345.186 434.686 345.186C432.695 345.186 430.885 345.539 429.376 346.542C427.445 347.721 425.032 348.31 422.98 348.31C418.636 348.31 414.473 345.952 412.24 342.179L408.077 335.105C405.844 331.273 405.724 326.675 407.956 323.02C408.922 321.252 410.732 319.483 412.783 318.363C414.473 317.538 415.559 316.182 416.584 314.59C419.601 309.521 417.791 302.859 412.662 299.853C406.689 296.492 404.758 289.006 408.197 283.17L412.24 276.213C415.74 270.377 423.222 268.314 429.255 271.733C434.505 274.563 441.323 272.676 444.4 267.665C445.366 266.015 445.909 264.246 445.788 262.478C445.667 260.179 446.331 257.998 447.478 256.229C449.71 252.574 453.753 250.216 458.157 250.098H466.665ZM462.502 292.425C453.029 292.425 445.366 299.853 445.366 309.108C445.366 318.363 453.029 325.732 462.502 325.732C471.975 325.732 479.457 318.363 479.457 309.108C479.457 299.853 471.975 292.425 462.502 292.425Z" fill="#1F2F54"/>
<path d="M468.668 240.313C473.133 240.313 477.176 242.789 479.409 246.444C480.495 248.213 481.219 250.394 481.038 252.693C480.917 254.462 481.46 256.23 482.425 257.881C485.503 262.892 492.321 264.778 497.631 261.948C503.604 258.529 511.146 260.593 514.586 266.429L518.628 273.385C522.128 279.221 520.197 286.708 514.163 290.068C509.035 293.074 507.224 299.736 510.302 304.806C511.267 306.397 512.353 307.753 514.043 308.578C516.155 309.699 517.784 311.467 518.93 313.236C521.163 316.891 520.982 321.371 518.809 325.32L514.586 332.395C512.353 336.167 508.19 338.525 503.906 338.525C501.794 338.525 499.441 337.936 497.51 336.757C495.941 335.755 494.131 335.401 492.2 335.401C486.227 335.401 481.219 340.294 481.038 346.13C481.038 352.909 475.487 358.215 468.548 358.215H460.342C453.342 358.215 447.791 352.909 447.791 346.13C447.671 340.294 442.663 335.401 436.689 335.401C434.698 335.401 432.888 335.755 431.379 336.757C429.449 337.936 427.035 338.525 424.983 338.525C420.639 338.525 416.476 336.167 414.243 332.395L410.08 325.32C407.847 321.489 407.727 316.891 409.959 313.236C410.925 311.467 412.735 309.699 414.786 308.578C416.476 307.753 417.562 306.397 418.588 304.806C421.605 299.736 419.794 293.074 414.666 290.068C408.692 286.708 406.761 279.221 410.201 273.385L414.243 266.429C417.743 260.593 425.225 258.529 431.259 261.948C436.508 264.778 443.326 262.892 446.404 257.881C447.369 256.23 447.912 254.462 447.791 252.693C447.671 250.394 448.334 248.213 449.481 246.444C451.713 242.789 455.756 240.431 460.161 240.313H468.668ZM464.505 282.64C455.032 282.64 447.369 290.068 447.369 299.323C447.369 308.578 455.032 315.947 464.505 315.947C473.978 315.947 481.46 308.578 481.46 299.323C481.46 290.068 473.978 282.64 464.505 282.64Z" fill="#2D68FF"/>
<path d="M481.388 299.82C481.388 309.128 473.83 316.679 464.5 316.679C455.17 316.679 447.612 309.128 447.612 299.82C447.612 290.512 455.17 282.961 464.5 282.961C473.83 282.961 481.388 290.512 481.388 299.82Z" fill="white" stroke="#1F2F54" stroke-width="4"/>
</g>
</g>
<defs>
<clipPath id="clip0_2481_23467">
<rect width="588" height="412" fill="white" transform="translate(-0.000488281)"/>
</clipPath>
<clipPath id="clip1_2481_23467">
<rect width="341.133" height="220.495" fill="white" transform="translate(125.942 77.6631)"/>
</clipPath>
</defs>
</svg>
