<svg width="24" height="24" viewBox="0 0 24 24" fill="none" xmlns="http://www.w3.org/2000/svg">
<rect width="24" height="24" rx="8" fill="#0966C2"/>
<path d="M6 7.61369C6 7.22889 6.13514 6.91143 6.40541 6.66131C6.67567 6.41119 7.02703 6.28613 7.45946 6.28613C7.88417 6.28613 8.2278 6.40926 8.49035 6.65554C8.76061 6.90951 8.89575 7.24043 8.89575 7.64833C8.89575 8.01773 8.76448 8.32557 8.50193 8.57185C8.23166 8.82581 7.87645 8.9528 7.43629 8.9528H7.42471C7 8.9528 6.65637 8.82581 6.39382 8.57185C6.13127 8.31788 6 7.99849 6 7.61369ZM6.15058 17.7147V10.0033H8.72201V17.7147H6.15058ZM10.1467 17.7147H12.7181V13.4088C12.7181 13.1394 12.749 12.9316 12.8108 12.7854C12.9189 12.5237 13.083 12.3025 13.3031 12.1216C13.5232 11.9408 13.7992 11.8503 14.1313 11.8503C14.9961 11.8503 15.4286 12.4314 15.4286 13.5935V17.7147H18V13.2933C18 12.1543 17.7297 11.2905 17.1892 10.7017C16.6486 10.113 15.9344 9.8186 15.0463 9.8186C14.0502 9.8186 13.2741 10.2457 12.7181 11.1V11.1231H12.7066L12.7181 11.1V10.0033H10.1467C10.1622 10.2496 10.1699 11.0153 10.1699 12.3006C10.1699 13.5858 10.1622 15.3905 10.1467 17.7147Z" fill="white"/>
</svg>
