<svg width="60" height="60" viewBox="0 0 60 60" fill="none" xmlns="http://www.w3.org/2000/svg">
<rect width="60" height="60" rx="16" fill="#45BCFF"/>
<path d="M29.9999 29.1299C33.8433 29.1299 36.9589 26.0142 36.9589 22.1709C36.9589 18.3276 33.8433 15.2119 29.9999 15.2119C26.1566 15.2119 23.041 18.3276 23.041 22.1709C23.041 26.0142 26.1566 29.1299 29.9999 29.1299Z" fill="white"/>
<path opacity="0.45" d="M16.9519 32.6094C19.354 32.6094 21.3012 30.6621 21.3012 28.26C21.3012 25.8579 19.354 23.9106 16.9519 23.9106C14.5498 23.9106 12.6025 25.8579 12.6025 28.26C12.6025 30.6621 14.5498 32.6094 16.9519 32.6094Z" fill="white"/>
<path opacity="0.45" d="M43.0481 32.6094C45.4502 32.6094 47.3974 30.6621 47.3974 28.26C47.3974 25.8579 45.4502 23.9106 43.0481 23.9106C40.646 23.9106 38.6987 25.8579 38.6987 28.26C38.6987 30.6621 40.646 32.6094 43.0481 32.6094Z" fill="white"/>
<path d="M35.2193 44.7876H24.7808C21.898 44.7876 19.5615 42.0614 19.5615 38.6985C19.5615 35.3356 21.898 32.6094 24.7808 32.6094H35.2193C38.102 32.6094 40.4385 35.3356 40.4385 38.6985C40.4385 42.0614 38.102 44.7876 35.2193 44.7876Z" fill="white"/>
<path opacity="0.45" d="M46.6163 36.0889H13.2497C10.9707 36.0889 9.12305 37.9365 9.12305 40.2155V40.6627C9.12305 42.94 10.9707 44.7876 13.2497 44.7876H46.6163C48.9685 44.7876 50.877 42.8791 50.877 40.5252V40.3495C50.877 37.9974 48.9685 36.0889 46.6163 36.0889Z" fill="white"/>
</svg>
