<svg width="64" height="64" viewBox="0 0 64 64" fill="none" xmlns="http://www.w3.org/2000/svg">
<rect width="64" height="64" rx="16" fill="#2D68FF"/>
<path opacity="0.55" d="M45.4766 17.6807H18.5231V45.089C18.5231 47.2537 20.8007 48.6603 22.7363 47.6934L31.9999 43.0607L41.2635 47.6934C43.1991 48.6603 45.4766 47.252 45.4766 45.089V17.6807Z" fill="white"/>
<path d="M44.6344 15.9961C43.9842 15.9961 20.0158 15.9961 19.3655 15.9961C17.9707 15.9961 16.8386 17.1281 16.8386 18.523C16.8386 19.9178 17.9707 21.0499 19.3655 21.0499C20.0158 21.0499 43.9842 21.0499 44.6344 21.0499C46.0293 21.0499 47.1613 19.9178 47.1613 18.523C47.1613 17.1281 46.0293 15.9961 44.6344 15.9961Z" fill="white"/>
</svg>
