<svg width="256" height="256" viewBox="0 0 256 256" fill="none" xmlns="http://www.w3.org/2000/svg">
<g clip-path="url(#clip0_2472_23669)">
<path d="M24.2927 111.625V92.3661C24.2927 89.6835 27.1148 87.938 29.5151 89.136L109.785 129.199C120.973 134.783 134.138 134.772 145.316 129.168L233.77 84.8252C244.411 79.4907 244.391 64.2962 233.736 58.9895L140.797 12.7018C132.138 8.38916 121.953 8.41207 113.313 12.7636L13.5366 63.0181C7.44723 66.0851 3.60559 72.3215 3.60559 79.1396V182.582C3.60559 186.012 5.55011 189.146 8.62369 190.669L111.424 241.609C121.583 246.643 133.518 246.612 143.651 241.525L238.617 193.848C246.573 189.854 246.581 178.5 238.63 174.496L229.71 170.003L141.704 214.867C133.592 219.002 124.005 219.07 115.836 215.05L27.317 171.491C25.4655 170.58 24.2927 168.696 24.2927 166.632V150.953C24.2927 146.919 28.5451 144.301 32.1468 146.118L109.608 185.191C120.893 190.883 134.214 190.864 145.482 185.138L239.141 137.549C246.987 133.562 247.054 122.377 239.256 118.297L233.694 115.387C231.641 114.313 229.197 114.289 227.124 115.323L148.428 154.578C135.281 161.135 119.823 161.158 106.657 154.641L26.3012 114.861C25.0711 114.252 24.2927 112.998 24.2927 111.625Z" fill="#FF4363"/>
</g>
<defs>
<clipPath id="clip0_2472_23669">
<rect width="256" height="256" fill="white"/>
</clipPath>
</defs>
</svg>
