<svg width="58" height="132" viewBox="0 0 58 132" fill="none" xmlns="http://www.w3.org/2000/svg">
<g clip-path="url(#clip0_2510_24880)">
<mask id="mask0_2510_24880" style="mask-type:alpha" maskUnits="userSpaceOnUse" x="-1" y="-235" width="849" height="367">
<rect x="-0.199219" y="-235" width="848" height="367" fill="#3D60DE"/>
</mask>
<g mask="url(#mask0_2510_24880)">
<mask id="mask1_2510_24880" style="mask-type:alpha" maskUnits="userSpaceOnUse" x="-201" y="-11" width="258" height="306">
<path d="M23.4578 15.6966C79.1353 61.8912 49.0243 101.94 38.7389 187.912C36.8896 203.371 31.3149 218.371 20.9412 229.98C-25.5227 281.977 -77.5984 319.459 -132.013 274.312C-189.581 226.549 -221.624 142.815 -183.836 49.2255C-179.884 39.438 -172.451 31.474 -163.223 26.3498C-99.4495 -9.06356 -32.9738 -31.1237 23.4578 15.6966Z" fill="#FFBA07"/>
</mask>
<g mask="url(#mask1_2510_24880)">
<path d="M23.4578 15.6966C79.1353 61.8912 49.0243 101.94 38.7389 187.912C36.8896 203.371 31.3149 218.371 20.9412 229.98C-25.5227 281.977 -77.5984 319.459 -132.013 274.312C-189.581 226.549 -221.624 142.815 -183.836 49.2255C-179.884 39.438 -172.451 31.474 -163.223 26.3498C-99.4495 -9.06356 -32.9738 -31.1237 23.4578 15.6966Z" fill="#FFBA07"/>
<path d="M22.9066 41.1299C94.9432 47.8128 92.7084 97.8686 132.769 174.629C139.972 188.431 143.842 203.959 141.836 219.398C132.852 288.549 111.041 348.89 40.6378 342.358C-33.8444 335.449 -107.574 284.438 -129.238 185.86C-131.504 175.551 -129.867 164.781 -125.145 155.341C-92.5102 90.1015 -50.1057 34.3564 22.9066 41.1299Z" fill="#FF4363"/>
</g>
</g>
</g>
<defs>
<clipPath id="clip0_2510_24880">
<rect width="58" height="132" fill="white"/>
</clipPath>
</defs>
</svg>
