<svg width="173" height="35" viewBox="0 0 173 35" fill="none" xmlns="http://www.w3.org/2000/svg">
<path d="M3.33609 15.4089V13.6799C3.33609 13.0465 4.00238 12.6344 4.56907 12.9172L12.8753 17.063C15.5168 18.3813 18.6249 18.3786 21.2641 17.0556L28.5357 13.4102C31.048 12.1508 31.0433 8.56346 28.5277 7.31059L20.2507 3.18826C18.2063 2.17007 15.8015 2.17548 13.7618 3.20285L2.92912 8.65895C1.49146 9.38306 0.584473 10.8554 0.584473 12.4651V24.5005C0.584473 25.3104 1.04357 26.0503 1.76922 26.4098L13.2623 32.1049C15.6609 33.2935 18.4785 33.2862 20.8709 32.0851L30.6564 27.1724C32.2053 26.3948 32.2068 24.1844 30.6589 23.4047L20.2818 28.6948C18.3666 29.6712 16.1031 29.6872 14.1743 28.738L4.05011 23.7561C3.61298 23.541 3.33609 23.0961 3.33609 22.6089V21.7777C3.33609 20.8253 4.34006 20.2073 5.1904 20.6362L12.8335 24.4915C15.4979 25.8355 18.6429 25.8309 21.3032 24.4791L31.2802 19.4097C32.5891 18.7446 32.6003 16.8787 31.2993 16.1981C30.9569 16.0189 30.5492 16.0149 30.2033 16.1874L21.9987 20.2799C18.895 21.8281 15.2454 21.8336 12.1369 20.2948L3.81028 16.1727C3.51986 16.0289 3.33609 15.7329 3.33609 15.4089Z" fill="#FF4363"/>
<path d="M47.9448 22.4971H56.9472V25.8179H44.2089V7.44987H47.9448V22.4971ZM65.5998 23.0419C66.1186 23.0419 66.5597 22.9641 66.9229 22.8084C67.3034 22.6355 67.6147 22.3587 67.8569 21.9782H71.6965C71.5062 22.6874 71.2122 23.3014 70.8144 23.8202C70.4339 24.3391 69.9669 24.7628 69.4135 25.0915C68.8773 25.4201 68.2806 25.6622 67.6234 25.8179C66.9661 25.9562 66.2743 26.0254 65.5479 26.0254C63.334 26.0254 61.6564 25.4028 60.5148 24.1575C59.3906 22.9122 58.8285 21.1653 58.8285 18.9169C58.8285 17.8965 58.9755 16.9538 59.2696 16.0891C59.5809 15.2243 60.0133 14.4806 60.5667 13.8579C61.1202 13.218 61.8034 12.725 62.6163 12.3791C63.4465 12.0332 64.3891 11.8603 65.4441 11.8603C66.6721 11.8603 67.7358 12.0765 68.6352 12.5089C69.5345 12.9412 70.2437 13.5379 70.7625 14.299C71.2987 15.0427 71.6533 15.9161 71.8262 16.9192C72.0165 17.9224 72.0165 18.9947 71.8262 20.1362H62.4866C62.5557 20.9491 62.8411 21.641 63.3427 22.2117C63.8443 22.7652 64.5966 23.0419 65.5998 23.0419ZM68.4276 17.6197C68.4276 17.1873 68.3498 16.8068 68.1941 16.4782C68.0385 16.1323 67.8309 15.8556 67.5715 15.648C67.312 15.4232 67.0007 15.2589 66.6375 15.1551C66.2916 15.0513 65.9284 14.9994 65.5479 14.9994C64.6312 15.0167 63.9134 15.2675 63.3946 15.7518C62.893 16.2188 62.599 16.8414 62.5125 17.6197H68.4276ZM82.9339 24.1315C82.415 24.8234 81.7837 25.3163 81.04 25.6103C80.2963 25.9043 79.4315 26.0427 78.4457 26.0254C77.1831 25.9908 76.128 25.6363 75.2805 24.9617C74.8309 24.5812 74.4763 24.1315 74.2169 23.6127C73.9747 23.0765 73.8537 22.4452 73.8537 21.7188C73.871 20.9751 74.0353 20.3178 74.3466 19.7471C74.6752 19.159 75.1681 18.6748 75.8254 18.2943C76.3788 18.0002 77.0015 17.7927 77.6933 17.6716C78.4024 17.5505 79.1721 17.49 80.0023 17.49H82.8042C82.8561 16.6425 82.6572 16.0112 82.2075 15.5961C81.7751 15.1637 81.1611 14.9389 80.3655 14.9216C80.106 14.9216 79.838 14.9389 79.5612 14.9735C79.2845 15.0081 79.0251 15.0773 78.7829 15.181C78.5581 15.2848 78.3592 15.4318 78.1862 15.6221C78.0306 15.795 77.9268 16.0112 77.8749 16.2707H74.1131C74.1996 15.4405 74.4244 14.7486 74.7876 14.1952C75.1681 13.6244 75.6438 13.1661 76.2145 12.8202C76.7853 12.4743 77.4166 12.2321 78.1084 12.0938C78.8175 11.9381 79.5439 11.8603 80.2876 11.8603C80.7027 11.8603 81.1265 11.8862 81.5589 11.9381C81.9913 11.9727 82.415 12.0592 82.8301 12.1975C83.2452 12.3186 83.6344 12.4916 83.9976 12.7164C84.3781 12.9239 84.7326 13.2007 85.0613 13.5466C85.6493 14.2211 86.0125 14.9994 86.1509 15.8815C86.3065 16.7463 86.3757 17.5938 86.3584 18.424V25.8179H83.0117L82.9339 24.1315ZM82.8042 19.773H80.132C79.8726 19.773 79.5785 19.799 79.2499 19.8509C78.9213 19.9028 78.6359 19.9979 78.3938 20.1362C78.1516 20.2746 77.9441 20.4562 77.7711 20.6811C77.6155 20.9059 77.5376 21.1826 77.5376 21.5112C77.5376 21.788 77.5895 22.0301 77.6933 22.2377C77.8144 22.4452 77.9614 22.6182 78.1343 22.7565C78.3246 22.8949 78.5494 23.0073 78.8089 23.0938C79.0683 23.163 79.3277 23.1976 79.5872 23.1976C80.0887 23.2149 80.5557 23.1284 80.9881 22.9381C81.4378 22.7479 81.827 22.4798 82.1556 22.1339C82.3631 21.8572 82.5188 21.5458 82.6226 21.1999C82.7436 20.8367 82.8042 20.3611 82.8042 19.773ZM92.7987 13.8579C93.3522 13.2007 93.9402 12.7078 94.5629 12.3791C95.2028 12.0505 95.9638 11.8862 96.8459 11.8862C97.0707 11.8862 97.2869 11.8949 97.4945 11.9122C97.702 11.9294 97.8923 11.9554 98.0652 11.99V15.3626C97.6674 15.3626 97.261 15.3713 96.8459 15.3886C96.4481 15.3886 96.0676 15.4232 95.7044 15.4924C95.3412 15.5615 94.9866 15.674 94.6407 15.8296C94.3121 15.968 94.018 16.1755 93.7586 16.4523C93.3608 16.902 93.11 17.3862 93.0062 17.9051C92.9198 18.424 92.8765 19.012 92.8765 19.6693V25.8179H89.2185V12.1456H92.5912L92.7987 13.8579ZM103.594 13.8839C104.701 12.5521 106.067 11.8776 107.693 11.8603C108.575 11.843 109.353 11.99 110.028 12.3013C110.703 12.5953 111.247 13.0018 111.662 13.5206C112.164 14.126 112.51 14.8351 112.7 15.648C112.89 16.4436 112.986 17.3343 112.986 18.3202V25.8179H109.302V18.6056C109.302 18.1213 109.25 17.663 109.146 17.2306C109.059 16.7809 108.904 16.4004 108.679 16.0891C108.454 15.7604 108.151 15.5183 107.771 15.3626C107.408 15.207 106.993 15.1291 106.526 15.1291C105.938 15.1464 105.436 15.2762 105.021 15.5183C104.623 15.7604 104.32 16.0718 104.113 16.4523C103.905 16.8155 103.758 17.2306 103.672 17.6976C103.603 18.1472 103.568 18.6056 103.568 19.0726V25.8179H99.9101V12.1456H103.412L103.594 13.8839ZM117.819 5.78949C118.494 5.78949 119.038 5.98839 119.453 6.38619C119.869 6.78399 120.076 7.3115 120.076 7.96874C120.076 8.66057 119.869 9.20538 119.453 9.60318C119.038 9.98368 118.494 10.1739 117.819 10.1739C117.162 10.1739 116.617 9.98368 116.185 9.60318C115.769 9.20538 115.562 8.66057 115.562 7.96874C115.562 7.3115 115.769 6.78399 116.185 6.38619C116.617 5.98839 117.162 5.78949 117.819 5.78949ZM119.661 25.8179H116.003V12.1456H119.661V25.8179ZM130.909 12.1456V15.3367H127.562V25.8179H123.904V15.3367H121.829V12.1456H123.904V10.3815C123.904 8.84217 124.302 7.7093 125.098 6.98289C125.91 6.25647 127.121 5.89326 128.73 5.89326H130.909V9.08431H129.249C128.124 9.08431 127.562 9.65507 127.562 10.7966V12.1456H130.909ZM141.644 27.9452C141.99 27.4091 142.189 26.821 142.241 26.1811C142.293 25.5411 142.319 24.9098 142.319 24.2872C141.817 24.9271 141.203 25.3768 140.477 25.6363C139.75 25.8957 138.963 26.0254 138.116 26.0254C137.13 26.0254 136.274 25.8784 135.547 25.5844C134.838 25.2904 134.276 24.8407 133.861 24.2353C133.446 23.6819 133.161 23.0333 133.005 22.2896C132.849 21.5285 132.771 20.707 132.771 19.8249V12.1456H136.429V19.3839C136.429 19.8509 136.464 20.3092 136.533 20.7589C136.62 21.1913 136.793 21.5545 137.052 21.8485C137.467 22.4712 138.219 22.7825 139.309 22.7825C139.828 22.7825 140.312 22.6787 140.762 22.4712C141.212 22.2463 141.566 21.9004 141.826 21.4334C142.05 21.0356 142.189 20.6205 142.241 20.1881C142.293 19.7384 142.319 19.2542 142.319 18.7353V12.1456H146.003V23.3792C146.003 24.0018 145.994 24.6418 145.977 25.299C145.977 25.9389 145.925 26.5702 145.821 27.1929C145.734 27.8155 145.57 28.4209 145.328 29.0089C145.086 29.597 144.749 30.1418 144.316 30.6434C143.711 31.3352 142.915 31.8887 141.929 32.3037C140.961 32.7188 139.793 32.9177 138.427 32.9004C137.424 32.9177 136.429 32.7794 135.444 32.4854C134.458 32.2086 133.55 31.8022 132.719 31.266L133.887 28.1528C134.337 28.4814 134.933 28.7841 135.677 29.0608C136.438 29.3375 137.329 29.4759 138.349 29.4759C139.179 29.4759 139.854 29.3375 140.373 29.0608C140.909 28.8014 141.333 28.4295 141.644 27.9452ZM167.032 7.44987H171.39L165.32 16.6339L171.546 25.8179H167.161L163.011 19.5136L158.704 25.8179H154.475L160.779 16.6079L154.683 7.44987H159.067L163.088 13.806L167.032 7.44987Z" fill="#1F2F54"/>
</svg>
