<svg width="56" height="190" viewBox="0 0 56 190" fill="none" xmlns="http://www.w3.org/2000/svg">
<g clip-path="url(#clip0_2510_24879)">
<mask id="mask0_2510_24879" style="mask-type:alpha" maskUnits="userSpaceOnUse" x="-792" y="0" width="848" height="367">
<rect x="-792" width="848" height="367" fill="#3D60DE"/>
</mask>
<g mask="url(#mask0_2510_24879)">
<mask id="mask1_2510_24879" style="mask-type:alpha" maskUnits="userSpaceOnUse" x="1" y="-34" width="310" height="253">
<path d="M13.7817 21.1755C46.149 -43.5259 91.9821 -23.2798 178.047 -32.7555C193.522 -34.4593 209.396 -32.431 223.055 -24.9597C284.232 8.50449 332.546 50.7253 300.913 113.96C267.446 180.858 193.159 231.052 93.4389 215.468C83.0102 213.838 73.5684 208.405 66.4853 200.579C17.5342 146.496 -19.024 86.7535 13.7817 21.1755Z" fill="#FFBA07"/>
</mask>
<g mask="url(#mask1_2510_24879)">
<path d="M13.7817 21.1755C46.149 -43.5259 91.9821 -23.2798 178.047 -32.7555C193.522 -34.4593 209.396 -32.431 223.055 -24.9597C284.232 8.50449 332.546 50.7253 300.913 113.96C267.446 180.858 193.159 231.052 93.4389 215.468C83.0102 213.838 73.5684 208.405 66.4853 200.579C17.5342 146.496 -19.024 86.7535 13.7817 21.1755Z" fill="#FFBA07"/>
<path d="M12.3732 33.5503C2.5486 -38.1254 51.8075 -47.2984 117.486 -103.72C129.295 -113.865 143.541 -121.155 159.033 -122.702C228.419 -129.631 292.134 -122.069 301.736 -52.0191C311.894 22.0899 278.93 105.465 187.831 148.916C178.304 153.46 167.444 154.308 157.179 151.849C86.2388 134.857 22.3308 106.197 12.3732 33.5503Z" fill="#45BCFF"/>
</g>
</g>
</g>
<defs>
<clipPath id="clip0_2510_24879">
<rect width="56" height="190" fill="white"/>
</clipPath>
</defs>
</svg>
