<svg width="64" height="64" viewBox="0 0 64 64" fill="none" xmlns="http://www.w3.org/2000/svg">
<rect width="64" height="64" rx="16" fill="#45BCFF"/>
<path opacity="0.6" d="M28.5283 49.3853C28.2467 49.3853 27.9651 49.354 27.68 49.281C25.8163 48.8151 24.6863 46.9271 25.1487 45.0635L32.1026 17.2479C32.5686 15.3842 34.4635 14.2577 36.3202 14.7166C38.1838 15.1825 39.3138 17.0705 38.8514 18.9342L31.8975 46.7498C31.5011 48.3318 30.086 49.3853 28.5283 49.3853Z" fill="#FAFBFC"/>
<path d="M43.4942 42.4314C42.6041 42.4314 41.714 42.0907 41.036 41.4127C39.6765 40.0532 39.6765 37.8558 41.036 36.4963L45.5317 32.0006L41.036 27.5049C39.6765 26.1454 39.6765 23.948 41.036 22.5885C42.3955 21.229 44.5929 21.229 45.9524 22.5885L52.9063 29.5424C54.2658 30.9019 54.2658 33.0993 52.9063 34.4588L45.9524 41.4127C45.2744 42.0907 44.3843 42.4314 43.4942 42.4314Z" fill="#FAFBFC"/>
<path d="M20.5059 42.4314C19.6158 42.4314 18.7257 42.0907 18.0477 41.4127L11.0938 34.4588C9.73435 33.0993 9.73435 30.9019 11.0938 29.5424L18.0477 22.5885C19.4072 21.229 21.6047 21.229 22.9641 22.5885C24.3236 23.948 24.3236 26.1454 22.9641 27.5049L18.4684 32.0006L22.9641 36.4963C24.3236 37.8558 24.3236 40.0532 22.9641 41.4127C22.2861 42.0907 21.396 42.4314 20.5059 42.4314Z" fill="#FAFBFC"/>
</svg>
