<svg width="76" height="76" viewBox="0 0 76 76" fill="none" xmlns="http://www.w3.org/2000/svg">
<rect width="76" height="76" rx="16.8889" fill="#FF4363"/>
<path opacity="0.55" d="M52.0389 54.0449H23.9611C20.6379 54.0449 17.9444 51.3515 17.9444 48.0283V27.9727C17.9444 24.6495 20.6379 21.9561 23.9611 21.9561H52.0389C55.3621 21.9561 58.0556 24.6495 58.0556 27.9727V48.0283C58.0556 51.3515 55.3621 54.0449 52.0389 54.0449Z" fill="white"/>
<path d="M33.8726 37.5292L17.9444 27.9727C17.9444 24.6495 20.6379 21.9561 23.9611 21.9561H52.0389C55.3621 21.9561 58.0556 24.6495 58.0556 27.9727L42.1274 37.5292C39.5864 39.0534 36.4136 39.0534 33.8726 37.5292Z" fill="white"/>
</svg>
