<svg width="60" height="60" viewBox="0 0 60 60" fill="none" xmlns="http://www.w3.org/2000/svg">
<rect width="60" height="60" rx="16" fill="#FF4363"/>
<path opacity="0.35" d="M47.7104 22.6747L32.3127 14.3835C30.8525 13.5974 29.0957 13.5974 27.6355 14.3835L12.2378 22.6747C11.233 23.2143 10.6982 24.1543 10.5782 25.138C10.6982 26.1218 11.2346 27.0618 12.2378 27.6014L27.6355 35.8926C29.0957 36.6787 30.8525 36.6787 32.3127 35.8926L47.7104 27.6014C48.4332 27.2125 49.4218 26.7587 49.4218 26.7587C49.4218 26.7587 49.4218 25.138 49.37 25.138C49.2501 24.1543 48.7152 23.2143 47.7104 22.6747Z" fill="white"/>
<path d="M42.9393 27.8106C42.9393 27.1737 42.5601 26.6227 42.0091 26.472C40.3155 26.0068 36.3028 25.1382 29.9742 25.1382C23.6456 25.1382 19.6329 26.0068 17.9393 26.472C17.3883 26.6243 17.009 27.1737 17.009 27.8106L17.022 38.9169C17.0236 40.1 17.8826 41.1388 19.0883 41.3187C19.1386 41.3252 24.1804 42.1112 28.4167 45.6426C28.8689 46.0186 29.4215 46.2066 29.9742 46.2066C30.5268 46.2066 31.0795 46.0186 31.53 45.6426C35.7664 42.1112 40.8082 41.3252 40.8503 41.3203C42.0642 41.1469 42.9393 40.1065 42.9393 38.9169V27.8106Z" fill="white"/>
<path d="M47.8012 41.3446C46.9066 41.3446 46.1805 40.6186 46.1805 39.724V26.7588C46.1805 25.8642 46.9066 25.1382 47.8012 25.1382C48.6958 25.1382 49.4218 25.8642 49.4218 26.7588V39.724C49.4218 40.6186 48.6958 41.3446 47.8012 41.3446Z" fill="white"/>
</svg>
