<svg width="24" height="24" viewBox="0 0 24 24" fill="none" xmlns="http://www.w3.org/2000/svg">
<rect width="24" height="24" rx="8" fill="#FE0301"/>
<path d="M12.2925 16.6528L9.58433 16.6022C8.7075 16.5845 7.82849 16.6198 6.96885 16.437C5.66114 16.164 5.5685 14.8254 5.47156 13.7026C5.33798 12.124 5.38969 10.5168 5.64176 8.95144C5.78407 8.07309 6.34409 7.54898 7.21014 7.49194C10.1337 7.28496 13.0767 7.30949 15.9938 7.40606C16.3019 7.41491 16.6121 7.46329 16.9159 7.51837C18.4154 7.78698 18.452 9.30391 18.5492 10.5809C18.6461 11.871 18.6052 13.1678 18.4199 14.4492C18.2713 15.5101 17.9868 16.3998 16.7866 16.4857C15.2828 16.598 13.8134 16.6884 12.3054 16.6596C12.3054 16.6528 12.2968 16.6528 12.2925 16.6528ZM10.7003 13.9668C11.8336 13.3019 12.9453 12.648 14.072 11.9875C12.9367 11.3226 11.8271 10.6687 10.7003 10.0082V13.9668Z" fill="white"/>
</svg>
