<svg width="100" height="16" viewBox="0 0 100 16" fill="none" xmlns="http://www.w3.org/2000/svg">
<g clip-path="url(#clip0_2481_23208)">
<path d="M7.65972 13.6481C7.97665 13.4609 8.37035 13.4609 8.68729 13.6481L11.9748 15.5902C12.7422 16.0436 13.6778 15.3533 13.4711 14.4863L12.6142 10.8915C12.5259 10.5213 12.6532 10.1329 12.9435 9.8868L15.7797 7.482C16.4659 6.90022 16.1065 5.7793 15.21 5.70488L11.4361 5.39159C11.0648 5.36078 10.7407 5.12816 10.5927 4.78634L9.10045 1.34045C8.74898 0.528829 7.59803 0.52883 7.24655 1.34045L5.75433 4.78634C5.6063 5.12816 5.28217 5.36078 4.91094 5.39159L1.13698 5.70488C0.240467 5.7793 -0.11887 6.90022 0.567278 7.482L3.4035 9.8868C3.69377 10.1329 3.82108 10.5213 3.73282 10.8915L2.87586 14.4863C2.66917 15.3533 3.60484 16.0436 4.37223 15.5902L7.65972 13.6481Z" fill="#FFBA07"/>
</g>
<g clip-path="url(#clip1_2481_23208)">
<path d="M28.5733 13.6481C28.8902 13.4609 29.2839 13.4609 29.6009 13.6481L32.8883 15.5902C33.6557 16.0436 34.5914 15.3533 34.3847 14.4863L33.5278 10.8915C33.4395 10.5213 33.5668 10.1329 33.8571 9.8868L36.6933 7.482C37.3794 6.90022 37.0201 5.7793 36.1236 5.70488L32.3496 5.39159C31.9784 5.36078 31.6543 5.12816 31.5062 4.78634L30.014 1.34045C29.6625 0.528829 28.5116 0.52883 28.1601 1.34045L26.6679 4.78634C26.5199 5.12816 26.1957 5.36078 25.8245 5.39159L22.0505 5.70488C21.154 5.7793 20.7947 6.90022 21.4809 7.482L24.3171 9.8868C24.6073 10.1329 24.7347 10.5213 24.6464 10.8915L23.7894 14.4863C23.5827 15.3533 24.5184 16.0436 25.2858 15.5902L28.5733 13.6481Z" fill="#FFBA07"/>
</g>
<g clip-path="url(#clip2_2481_23208)">
<path d="M49.4864 13.6481C49.8034 13.4609 50.1971 13.4609 50.514 13.6481L53.8015 15.5902C54.5689 16.0436 55.5046 15.3533 55.2979 14.4863L54.4409 10.8915C54.3526 10.5213 54.48 10.1329 54.7702 9.8868L57.6064 7.482C58.2926 6.90022 57.9333 5.7793 57.0367 5.70488L53.2628 5.39159C52.8916 5.36078 52.5674 5.12816 52.4194 4.78634L50.9272 1.34045C50.5757 0.528829 49.4247 0.52883 49.0733 1.34045L47.581 4.78634C47.433 5.12816 47.1089 5.36078 46.7377 5.39159L42.9637 5.70488C42.0672 5.7793 41.7079 6.90022 42.394 7.482L45.2302 9.8868C45.5205 10.1329 45.6478 10.5213 45.5595 10.8915L44.7026 14.4863C44.4959 15.3533 45.4316 16.0436 46.199 15.5902L49.4864 13.6481Z" fill="#FFBA07"/>
</g>
<g clip-path="url(#clip3_2481_23208)">
<path d="M70.3996 13.6481C70.7165 13.4609 71.1102 13.4609 71.4272 13.6481L74.7146 15.5902C75.482 16.0436 76.4177 15.3533 76.211 14.4863L75.354 10.8915C75.2658 10.5213 75.3931 10.1329 75.6834 9.8868L78.5196 7.482C79.2057 6.90022 78.8464 5.7793 77.9499 5.70488L74.1759 5.39159C73.8047 5.36078 73.4806 5.12816 73.3325 4.78634L71.8403 1.34045C71.4888 0.528829 70.3379 0.52883 69.9864 1.34045L68.4942 4.78634C68.3462 5.12816 68.022 5.36078 67.6508 5.39159L63.8768 5.70488C62.9803 5.7793 62.621 6.90022 63.3071 7.482L66.1434 9.8868C66.4336 10.1329 66.5609 10.5213 66.4727 10.8915L65.6157 14.4863C65.409 15.3533 66.3447 16.0436 67.1121 15.5902L70.3996 13.6481Z" fill="#FFBA07"/>
</g>
<g clip-path="url(#clip4_2481_23208)">
<path d="M91.3127 13.6481C91.6296 13.4609 92.0233 13.4609 92.3402 13.6481L95.6277 15.5902C96.3951 16.0436 97.3308 15.3533 97.1241 14.4863L96.2671 10.8915C96.1789 10.5213 96.3062 10.1329 96.5965 9.8868L99.4327 7.482C100.119 6.90022 99.7595 5.7793 98.863 5.70488L95.089 5.39159C94.7178 5.36078 94.3937 5.12816 94.2456 4.78634L92.7534 1.34045C92.4019 0.528829 91.251 0.52883 90.8995 1.34045L89.4073 4.78634C89.2593 5.12816 88.9351 5.36078 88.5639 5.39159L84.7899 5.70488C83.8934 5.7793 83.5341 6.90022 84.2202 7.482L87.0564 9.8868C87.3467 10.1329 87.474 10.5213 87.3858 10.8915L86.5288 14.4863C86.3221 15.3533 87.2578 16.0436 88.0252 15.5902L91.3127 13.6481Z" fill="#FFBA07"/>
</g>
<defs>
<clipPath id="clip0_2481_23208">
<rect width="16.347" height="16" fill="white"/>
</clipPath>
<clipPath id="clip1_2481_23208">
<rect width="16.347" height="16" fill="white" transform="translate(20.9136)"/>
</clipPath>
<clipPath id="clip2_2481_23208">
<rect width="16.347" height="16" fill="white" transform="translate(41.8267)"/>
</clipPath>
<clipPath id="clip3_2481_23208">
<rect width="16.347" height="16" fill="white" transform="translate(62.7399)"/>
</clipPath>
<clipPath id="clip4_2481_23208">
<rect width="16.347" height="16" fill="white" transform="translate(83.653)"/>
</clipPath>
</defs>
</svg>
