<svg width="32" height="32" viewBox="0 0 32 32" fill="none" xmlns="http://www.w3.org/2000/svg">
<path d="M3.0366 13.9352V11.5925C3.0366 11.2357 3.41198 11.0035 3.73124 11.1629L13.5807 16.0788C15.0689 16.8216 16.8199 16.8201 18.3068 16.0747L29.0143 10.7069C30.4297 9.99737 30.427 7.97632 29.0098 7.27048L17.7099 1.64261C16.5581 1.06899 15.2033 1.07204 14.0542 1.65084L1.77164 7.83719C0.961694 8.24514 0.450714 9.07464 0.450714 9.98152V22.7778C0.450714 23.2341 0.709358 23.6509 1.11818 23.8535L13.7987 30.137C15.15 30.8067 16.7375 30.8025 18.0853 30.1259L29.673 24.3084C30.7312 23.7771 30.7322 22.267 29.6747 21.7343L28.7138 21.2504L17.8163 26.8057C16.7373 27.3557 15.4621 27.3648 14.3755 26.83L3.43887 21.4483C3.1926 21.3271 3.0366 21.0765 3.0366 20.802V18.9396C3.0366 18.403 3.60222 18.0548 4.08129 18.2965L13.5572 23.0763C15.0582 23.8335 16.83 23.8309 18.3288 23.0693L29.7426 17.2698C30.7863 16.7395 30.7951 15.2518 29.7579 14.7091L29.238 14.4371C28.9649 14.2942 28.6399 14.2911 28.3641 14.4286L18.7207 19.2388C16.9721 20.111 14.9159 20.1141 13.1647 19.2472L3.30375 14.3656C3.14013 14.2846 3.0366 14.1178 3.0366 13.9352Z" fill="#FF4363"/>
</svg>
