<svg width="60" height="60" viewBox="0 0 60 60" fill="none" xmlns="http://www.w3.org/2000/svg">
<rect width="60" height="60" rx="16" fill="#45BCFF"/>
<path opacity="0.55" d="M43.1463 15.9146H16.8538C13.7419 15.9146 11.2197 18.4367 11.2197 21.5486V30.9388C11.2197 34.0507 13.7419 36.5729 16.8538 36.5729H43.1463C46.2582 36.5729 48.7804 34.0507 48.7804 30.9388V21.5486C48.7804 18.4367 46.2582 15.9146 43.1463 15.9146Z" fill="white"/>
<path d="M30.0002 31.8777C31.556 31.8777 32.8172 30.6165 32.8172 29.0607C32.8172 27.5049 31.556 26.2437 30.0002 26.2437C28.4443 26.2437 27.1831 27.5049 27.1831 29.0607C27.1831 30.6165 28.4443 31.8777 30.0002 31.8777Z" fill="white"/>
<path d="M43.1463 36.5731H16.8538C13.7419 36.5731 11.2197 34.0509 11.2197 30.939V42.2072C11.2197 45.3191 13.7419 47.8413 16.8538 47.8413H43.1463C46.2582 47.8413 48.7804 45.3191 48.7804 42.2072V30.939C48.7804 34.0509 46.2582 36.5731 43.1463 36.5731Z" fill="white"/>
<path d="M31.8781 12.1587C31.1907 12.1587 28.8094 12.1587 28.122 12.1587C26.0468 12.1587 24.366 13.8395 24.366 15.9148H35.6342C35.6342 13.8395 33.9533 12.1587 31.8781 12.1587Z" fill="white"/>
</svg>
