<svg width="588" height="412" viewBox="0 0 588 412" fill="none" xmlns="http://www.w3.org/2000/svg">
<mask id="mask0_2481_23468" style="mask-type:alpha" maskUnits="userSpaceOnUse" x="0" y="0" width="588" height="412">
<rect width="588" height="412" fill="#FF4363"/>
</mask>
<g mask="url(#mask0_2481_23468)">
<rect width="588" height="412" fill="#FFBA07"/>
<path opacity="0.3" d="M400.762 288.797C400.893 242.067 437.273 206 484.275 206H1041.41C1093.86 206 1138.55 250.549 1138.4 302.697L1137.44 645.954C1137.3 692.684 1100.93 728.751 1053.92 728.751H496.788C444.336 728.751 399.652 684.202 399.798 632.054L400.762 288.797Z" fill="white"/>
<ellipse opacity="0.3" cx="-91.4457" cy="-241.818" rx="429.501" ry="424.297" fill="white"/>
<rect x="109.751" y="62.8721" width="352.581" height="257.307" rx="10" fill="#1F2F54"/>
<mask id="mask1_2481_23468" style="mask-type:alpha" maskUnits="userSpaceOnUse" x="125" y="48" width="354" height="258">
<rect x="125.668" y="48.0386" width="352.581" height="257.307" rx="10" fill="white"/>
</mask>
<g mask="url(#mask1_2481_23468)">
<rect x="125.668" y="48.0386" width="352.581" height="257.307" rx="10" fill="white"/>
<path d="M306.36 217.759C289.902 217.759 284.423 227.515 276.057 227.515C273.19 227.515 278.149 217.759 273.71 217.759C268.486 217.759 258.039 229.954 244.979 229.954C237.663 229.954 232.96 225.929 232.96 221.175C232.96 213.734 242.101 208.003 251.243 208.003C268.221 208.003 241.061 234.832 212.064 234.832C196.137 234.832 186.21 225.319 186.21 218.369C186.21 202.759 206.84 195.809 215.462 195.809C226.96 195.809 228.001 200.444 228.001 202.149C228.001 218.369 186.21 239.343 186.21 239.343" stroke="#1F2F54" stroke-width="3" stroke-miterlimit="10" stroke-linecap="round" stroke-linejoin="round"/>
<line x1="380.625" y1="96.9263" x2="223.292" y2="96.9263" stroke="#1F2F54" stroke-width="3" stroke-linecap="round"/>
<line x1="417.213" y1="126.781" x2="186.704" y2="126.781" stroke="#1F2F54" stroke-width="3" stroke-linecap="round"/>
<line x1="417.213" y1="144.793" x2="186.704" y2="144.793" stroke="#1F2F54" stroke-width="3" stroke-linecap="round"/>
<line x1="417.213" y1="162.804" x2="186.704" y2="162.804" stroke="#1F2F54" stroke-width="3" stroke-linecap="round"/>
<line x1="307.594" y1="255.12" x2="186.704" y2="255.12" stroke="#1F2F54" stroke-width="3" stroke-linecap="round"/>
<rect x="144.984" y="47.9629" width="320.772" height="14.2038" fill="#FFA827"/>
<rect x="144.984" y="291.142" width="320.772" height="14.2038" fill="#FFA827"/>
<rect x="125.153" y="315.763" width="320.277" height="14.2257" transform="rotate(-90 125.153 315.763)" fill="#FFA827"/>
<rect x="464.023" y="315.763" width="320.277" height="14.2257" transform="rotate(-90 464.023 315.763)" fill="#FFA827"/>
<ellipse cx="132.585" cy="54.9449" rx="38.7513" ry="38.6915" fill="#FFA827"/>
<ellipse cx="472.393" cy="299.499" rx="38.7513" ry="38.6915" fill="#FFA827"/>
<ellipse cx="472.102" cy="53.9889" rx="38.7513" ry="38.6915" fill="#FFA827"/>
<ellipse cx="120.913" cy="298.44" rx="38.7513" ry="38.6915" fill="#FFA827"/>
</g>
<path d="M433.055 356.964C433.973 358.952 432.521 361.221 430.331 361.221H411.471C410.562 361.221 409.702 361.634 409.132 362.343L398.844 375.151C397.429 376.913 394.647 376.536 393.751 374.461L372.173 324.481H418.063L433.055 356.964Z" fill="#1F2F54"/>
<path d="M391.531 324.481L369.606 374.503C368.702 376.566 365.932 376.934 364.521 375.178L354.2 362.342C353.63 361.633 352.77 361.221 351.862 361.221H333.015C330.825 361.221 329.373 358.952 330.291 356.964L345.283 324.481H391.531Z" fill="#1F2F54"/>
<path d="M378.982 228.83C381.051 227.718 383.54 227.718 385.609 228.83L395.88 234.349C396.737 234.809 397.681 235.086 398.652 235.161L410.279 236.063C412.623 236.244 414.719 237.59 415.859 239.646L421.506 249.824C421.979 250.676 422.625 251.421 423.402 252.009L432.686 259.037C434.563 260.458 435.601 262.727 435.447 265.076L434.687 276.677C434.623 277.651 434.764 278.627 435.1 279.544L439.102 290.46C439.912 292.671 439.557 295.142 438.156 297.035L431.234 306.385C430.653 307.17 430.243 308.066 430.03 309.018L427.484 320.367C426.97 322.663 425.336 324.546 423.137 325.38L412.24 329.514C411.329 329.859 410.501 330.391 409.807 331.075L401.512 339.257C399.84 340.907 397.451 341.607 395.153 341.123L383.74 338.716C382.787 338.516 381.804 338.516 380.851 338.716L369.438 341.123C367.14 341.607 364.751 340.907 363.079 339.257L354.784 331.075C354.091 330.391 353.262 329.859 352.351 329.514L341.454 325.38C339.255 324.546 337.621 322.663 337.107 320.367L334.562 309.018C334.348 308.066 333.938 307.17 333.357 306.385L326.435 297.035C325.034 295.142 324.679 292.671 325.489 290.46L329.492 279.544C329.828 278.627 329.968 277.651 329.904 276.677L329.144 265.076C328.991 262.727 330.028 260.458 331.905 259.037L341.189 252.009C341.966 251.421 342.612 250.676 343.085 249.824L348.732 239.646C349.873 237.59 351.969 236.244 354.312 236.063L365.939 235.161C366.91 235.086 367.854 234.809 368.711 234.349L378.982 228.83Z" fill="#1F2F54"/>
<path d="M442.167 353.201C443.084 355.189 441.632 357.458 439.443 357.458H420.583C419.674 357.458 418.814 357.871 418.244 358.58L407.956 371.388C406.541 373.15 403.759 372.773 402.863 370.698L381.285 320.718H427.175L442.167 353.201Z" fill="#E52949"/>
<path d="M400.643 320.718L378.718 370.74C377.814 372.803 375.044 373.171 373.632 371.415L363.311 358.578C362.742 357.87 361.882 357.458 360.973 357.458H342.126C339.937 357.458 338.485 355.189 339.402 353.201L354.394 320.718H400.643Z" fill="#FF4363"/>
<path d="M387.471 227.77C389.54 226.658 392.029 226.658 394.098 227.77L404.369 233.288C405.226 233.749 406.17 234.026 407.141 234.101L418.768 235.003C421.112 235.184 423.208 236.53 424.348 238.586L429.995 248.764C430.468 249.616 431.114 250.361 431.891 250.949L441.175 257.977C443.052 259.398 444.09 261.667 443.936 264.016L443.176 275.617C443.112 276.591 443.253 277.567 443.589 278.484L447.591 289.4C448.401 291.611 448.046 294.082 446.645 295.975L439.723 305.325C439.142 306.109 438.732 307.006 438.519 307.958L435.973 319.307C435.459 321.602 433.825 323.486 431.626 324.32L420.729 328.454C419.818 328.799 418.99 329.331 418.296 330.015L410.001 338.197C408.329 339.847 405.94 340.547 403.642 340.063L392.229 337.656C391.276 337.455 390.293 337.455 389.34 337.656L377.928 340.063C375.629 340.547 373.24 339.847 371.568 338.197L363.273 330.015C362.58 329.331 361.751 328.799 360.84 328.454L349.943 324.32C347.744 323.486 346.11 321.602 345.596 319.307L343.051 307.958C342.837 307.006 342.427 306.109 341.846 305.325L334.924 295.975C333.523 294.082 333.168 291.611 333.978 289.4L337.981 278.484C338.317 277.567 338.457 276.591 338.393 275.617L337.633 264.016C337.48 261.667 338.517 259.398 340.394 257.977L349.678 250.949C350.455 250.361 351.101 249.616 351.574 248.764L357.221 238.586C358.362 236.53 360.458 235.184 362.801 235.003L374.428 234.101C375.399 234.026 376.343 233.749 377.2 233.288L387.471 227.77Z" fill="#FFBA07"/>
<path d="M351.49 284.601C351.49 306.24 369.126 323.837 390.785 323.837C412.444 323.837 430.08 306.229 430.08 284.601C430.08 262.974 412.455 245.366 390.785 245.366C369.114 245.366 351.49 262.974 351.49 284.601ZM358.465 284.601C358.465 266.812 372.955 252.332 390.785 252.332C408.603 252.332 423.104 266.812 423.104 284.601C423.104 302.391 408.603 316.87 390.785 316.87C372.966 316.87 358.465 302.391 358.465 284.601Z" fill="#F4A201" stroke="#F4A201"/>
</g>
</svg>
